HIERARCHY
ROOT Hips
{
	OFFSET 0.000000 0.000000 0.000000
	CHANNELS 6 Xposition Yposition Zposition Zrotation Yrotation Xrotation 
	JOINT LHipJoint
	{
		OFFSET 0.000000 0.000000 0.000000
		CHANNELS 3 Zrotation Yrotation Xrotation
		JOINT LeftUpLeg
		{
			OFFSET 1.363060 -1.794630 0.839290
			CHANNELS 3 Zrotation Yrotation Xrotation
			JOINT LeftLeg
			{
				OFFSET 2.448110 -6.726130 0.000000
				CHANNELS 3 Zrotation Yrotation Xrotation
				JOINT LeftFoot
				{
					OFFSET 2.562200 -7.039590 0.000000
					CHANNELS 3 Zrotation Yrotation Xrotation
					JOINT LeftToeBase
					{
						OFFSET 0.157640 -0.433110 2.322550
						CHANNELS 3 Zrotation Yrotation Xrotation
						End Site
						{
							OFFSET 0.000000 0.000000 0.000000
						}
					}
				}
			}
		}
	}
	JOINT RHipJoint
	{
		OFFSET 0.000000 0.000000 0.000000
		CHANNELS 3 Zrotation Yrotation Xrotation
		JOINT RightUpLeg
		{
			OFFSET -1.305520 -1.794630 0.839290
			CHANNELS 3 Zrotation Yrotation Xrotation
			JOINT RightLeg
			{
				OFFSET -2.542530 -6.985550 0.000000
				CHANNELS 3 Zrotation Yrotation Xrotation
				JOINT RightFoot
				{
					OFFSET -2.568260 -7.056230 0.000000
					CHANNELS 3 Zrotation Yrotation Xrotation
					JOINT RightToeBase
					{
						OFFSET -0.164730 -0.452590 2.363150
						CHANNELS 3 Zrotation Yrotation Xrotation
						End Site
						{
							OFFSET 0.000000 0.000000 0.000000
						}
					}
				}
			}
		}
	}
	JOINT LowerBack
	{
		OFFSET 0.000000 0.000000 0.000000
		CHANNELS 3 Zrotation Yrotation Xrotation
		JOINT Spine
		{
			OFFSET 0.028270 2.035590 -0.193380
			CHANNELS 3 Zrotation Yrotation Xrotation
			JOINT Spine1
			{
				OFFSET 0.056720 2.048850 -0.042750
				CHANNELS 3 Zrotation Yrotation Xrotation
				JOINT Neck
				{
					OFFSET 0.000000 0.000000 0.000000
					CHANNELS 3 Zrotation Yrotation Xrotation
					JOINT Neck1
					{
						OFFSET -0.054170 1.746240 0.172020
						CHANNELS 3 Zrotation Yrotation Xrotation
						JOINT Head
						{
							OFFSET 0.104070 1.761360 -0.123970
							CHANNELS 3 Zrotation Yrotation Xrotation
							End Site
							{
								OFFSET 0.000000 0.000000 0.000000
							}
						}
					}
				}
				JOINT LeftShoulder
				{
					OFFSET 0.000000 0.000000 0.000000
					CHANNELS 3 Zrotation Yrotation Xrotation
					JOINT LeftArm
					{
						OFFSET 3.362410 1.200890 -0.311210
						CHANNELS 3 Zrotation Yrotation Xrotation
						JOINT LeftForeArm
						{
							OFFSET 4.983000 -0.000000 -0.000000
							CHANNELS 3 Zrotation Yrotation Xrotation
							JOINT LeftHand
							{
								OFFSET 3.483560 -0.000000 -0.000000
								CHANNELS 3 Zrotation Yrotation Xrotation
								JOINT LeftFingerBase
								{
									OFFSET 0.000000 0.000000 0.000000
									CHANNELS 3 Zrotation Yrotation Xrotation
									JOINT LeftHandIndex1
									{
										OFFSET 0.715260 -0.000000 -0.000000
										CHANNELS 3 Zrotation Yrotation Xrotation
										End Site
										{
											OFFSET 0.000000 0.000000 0.000000
										}
									}
								}
								JOINT LThumb
								{
									OFFSET 0.000000 0.000000 0.000000
									CHANNELS 3 Zrotation Yrotation Xrotation
									End Site
									{
										OFFSET 0.000000 0.000000 0.000000
									}
								}
							}
						}
					}
				}
				JOINT RightShoulder
				{
					OFFSET 0.000000 0.000000 0.000000
					CHANNELS 3 Zrotation Yrotation Xrotation
					JOINT RightArm
					{
						OFFSET -3.136600 1.374050 -0.404650
						CHANNELS 3 Zrotation Yrotation Xrotation
						JOINT RightForeArm
						{
							OFFSET -5.241900 -0.000000 -0.000000
							CHANNELS 3 Zrotation Yrotation Xrotation
							JOINT RightHand
							{
								OFFSET -3.444170 -0.000000 -0.000000
								CHANNELS 3 Zrotation Yrotation Xrotation
								JOINT RightFingerBase
								{
									OFFSET 0.000000 0.000000 0.000000
									CHANNELS 3 Zrotation Yrotation Xrotation
									JOINT RightHandIndex1
									{
										OFFSET -0.622530 -0.000000 -0.000000
										CHANNELS 3 Zrotation Yrotation Xrotation
										End Site
										{
											OFFSET 0.000000 0.000000 0.000000
										}
									}
								}
								JOINT RThumb
								{
									OFFSET 0.000000 0.000000 0.000000
									CHANNELS 3 Zrotation Yrotation Xrotation
									End Site
									{
										OFFSET 0.000000 0.000000 0.000000
									}
								}
							}
						}
					}
				}
			}
		}
	}
}
MOTION
Frames: 9
Frame Time: 0.008333
-3.741076 16.759719 1.635281 167.734243 87.298341 -175.308595 -11.018673 4.854406 2.590235 -7.334168 0.125100 1.249113 -1.145465 0.997042 20.950086 -0.080273 -4.364672 8.117885 -0.937700 0.000001 -71.556400 9.018222 -0.891189 3.066518 9.612752 -2.887968 -45.620459 3.376927 -1.644574 22.653281 1.546207 9.410669 4.832447 1.727500 0.000000 -49.779300 5.419019 -3.422815 -6.415196 0.408285 -4.078183 -3.668207 -7.479815 -3.959261 1.689013 5.816327 -13.104460 -8.807774 -4.237350 -0.318877 -0.288858 0.000000 0.000000 0.000000 4.611914 10.074738 -0.367433 -47.656958 -15.176445 14.087914 -178.768516 -69.871475 179.986711 2.142592 -1.090748 -0.029896 -0.119444 0.560925 -0.000000 0.000000 0.000000 0.000000 0.000000 0.000000 0.000000 12.522955 -9.547838 0.513306 68.548582 -4.155278 -26.587049 0.870954 66.288516 -0.023894 -8.574944 3.913100 -0.315184 0.137010 -0.238361 0.000000 0.000000 0.000000 0.000000 0.000000 0.000000 0.000000 
-3.555843 16.695288 1.643634 170.715598 87.179964 -172.256969 -11.054732 4.961182 2.729981 -6.996765 -0.000393 1.156713 -1.079406 1.042450 21.917192 -0.066510 -4.466263 8.093038 -0.969400 -0.000000 -73.087500 9.034939 -0.865476 2.979887 9.834463 -3.052856 -47.020521 3.208843 -2.036795 26.643253 1.499272 9.503953 2.850052 1.506001 -0.000000 -47.099900 5.791989 -3.340991 -6.569233 0.472486 -4.031623 -3.689902 -7.473943 -3.905706 1.721990 5.503350 -13.126947 -8.983574 -4.327090 -0.324285 -0.342307 0.000000 0.000000 0.000000 4.594232 10.271443 -0.378154 -47.444654 -15.831618 13.503529 -178.708284 -69.101496 179.986936 2.107941 -1.346180 -0.034760 -0.120466 0.581203 -0.000000 0.000000 0.000000 0.000000 0.000000 0.000000 0.000000 12.645029 -9.523640 0.588254 68.135379 -4.207002 -26.420361 0.918479 65.295362 -0.025071 -9.042817 3.705718 -0.315298 0.141738 -0.232169 0.000000 0.000000 0.000000 0.000000 0.000000 0.000000 0.000000 
-3.377108 16.635981 1.647865 174.510083 87.084826 -168.441524 -11.112170 5.074139 2.846520 -6.617887 -0.118708 1.049761 -1.005737 1.106334 22.959096 -0.042891 -4.528826 8.178277 -1.005400 -0.000001 -74.655500 9.045569 -0.814581 2.830219 10.141638 -3.289061 -48.145650 3.041640 -2.386515 30.447842 1.454189 9.657285 0.933314 1.292300 -0.000000 -44.986000 6.205442 -3.253564 -6.625315 0.544923 -3.978836 -3.697777 -7.454635 -3.847251 1.738277 5.201050 -13.119571 -9.156226 -4.411007 -0.329001 -0.396685 0.000000 0.000000 0.000000 4.563879 10.459387 -0.381746 -47.388428 -16.387436 12.859374 -178.656120 -68.497433 179.986992 2.095872 -1.576789 -0.039315 -0.122109 0.600006 -0.000000 0.000000 0.000000 0.000000 0.000000 0.000000 0.000000 12.741001 -9.466421 0.668192 67.711544 -4.109540 -26.196540 0.967146 64.239621 -0.026080 -9.440436 3.514581 -0.312717 0.145327 -0.226818 0.000000 0.000000 0.000000 0.000000 0.000000 0.000000 0.000000 
-3.205232 16.583273 1.648217 179.025237 87.002388 -163.945162 -11.210945 5.191189 2.934665 -6.177296 -0.209152 0.903352 -0.923702 1.190362 24.085279 -0.009737 -4.590811 8.418718 -1.059200 -0.000000 -76.107600 9.031455 -0.749804 2.634688 10.525407 -3.549260 -48.925971 2.888123 -2.666542 33.829030 1.407153 9.802455 -0.836012 1.081200 0.000000 -43.622700 6.653762 -3.160278 -6.591890 0.624753 -3.919191 -3.694124 -7.424067 -3.783776 1.735563 4.912845 -13.071305 -9.319511 -4.488733 -0.333044 -0.450166 0.000000 0.000000 0.000000 4.509361 10.633407 -0.375597 -47.473239 -16.841109 12.178859 -178.611949 -68.056802 179.986881 2.106166 -1.779561 -0.043859 -0.124486 0.616945 -0.000000 0.000000 0.000000 0.000000 0.000000 0.000000 0.000000 12.808261 -9.364664 0.753249 67.299887 -3.879102 -25.947878 1.015613 63.145548 -0.026917 -9.756054 3.344268 -0.308042 0.147720 -0.222433 0.000000 0.000000 0.000000 0.000000 0.000000 0.000000 0.000000 
-3.040236 16.538189 1.645356 -176.226516 86.893772 -159.246281 -11.362337 5.302179 2.994412 -5.672436 -0.267779 0.698530 -0.830526 1.290610 25.301373 0.032443 -4.678969 8.852546 -1.141000 0.000000 -77.278900 8.977849 -0.690018 2.408735 10.968118 -3.820203 -49.355176 2.759780 -2.870873 36.666369 1.355631 9.897801 -2.432346 0.874500 0.000000 -43.051100 7.114884 -3.069278 -6.483458 0.708918 -3.859427 -3.681314 -7.383550 -3.722532 1.714388 4.641363 -12.980873 -9.467700 -4.558902 -0.336375 -0.500886 0.000000 0.000000 0.000000 4.423061 10.784539 -0.357860 -47.673704 -17.197163 11.485169 -178.576323 -67.777489 179.986586 2.140527 -1.955432 -0.048292 -0.127696 0.631788 -0.000000 0.000000 0.000000 0.000000 0.000000 0.000000 0.000000 12.842717 -9.221594 0.841507 66.927687 -3.534125 -25.701080 1.062055 62.037410 -0.027588 -9.986168 3.199192 -0.302170 0.148920 -0.219100 0.000000 0.000000 0.000000 0.000000 0.000000 0.000000 0.000000 
-2.881735 16.501158 1.640694 -171.996427 86.704251 -155.086859 -11.551704 5.392602 3.029341 -5.123891 -0.314118 0.428550 -0.723430 1.398737 26.605669 0.083374 -4.797324 9.500179 -1.255000 0.000000 -77.979900 8.890085 -0.653131 2.168314 11.435495 -4.113793 -49.472492 2.664234 -3.009566 38.926247 1.297275 9.916914 -3.862462 0.677400 -0.000000 -43.191500 7.559080 -2.994148 -6.321133 0.792556 -3.811665 -3.663039 -7.336844 -3.675864 1.673851 4.393729 -12.840619 -9.590888 -4.622069 -0.339194 -0.545673 0.000000 0.000000 0.000000 4.311617 10.895752 -0.326959 -47.960456 -17.458841 10.801921 -178.549871 -67.657004 179.986098 2.199846 -2.106742 -0.053010 -0.131744 0.644392 -0.000000 0.000000 0.000000 0.000000 0.000000 0.000000 0.000000 12.853443 -9.036288 0.929801 66.616427 -3.120754 -25.478660 1.103341 60.959184 -0.028139 -10.139692 3.074224 -0.295303 0.149009 -0.216751 0.000000 0.000000 0.000000 0.000000 0.000000 0.000000 0.000000 
-2.729199 16.472220 1.635289 -168.613875 86.407222 -151.789376 -11.758405 5.456443 3.041758 -4.537979 -0.350729 0.086378 -0.603378 1.508791 27.993254 0.143558 -4.946004 10.355957 -1.403200 0.000000 -78.049400 8.781497 -0.645261 1.925397 11.909555 -4.430665 -49.321959 2.603810 -3.094366 40.623167 1.229042 9.833878 -5.142110 0.494600 -0.000000 -43.852300 7.982766 -2.938965 -6.122535 0.874955 -3.780461 -3.641536 -7.286544 -3.647882 1.618032 4.169550 -12.664122 -9.686702 -4.675719 -0.341376 -0.583341 0.000000 0.000000 0.000000 4.170040 10.963715 -0.283577 -48.297002 -17.641705 10.148458 -178.534312 -67.692829 179.985402 2.286267 -2.238330 -0.058115 -0.136587 0.654722 -0.000000 0.000000 0.000000 0.000000 0.000000 0.000000 0.000000 12.833263 -8.826279 1.014626 66.390120 -2.654521 -25.289036 1.137808 59.932409 -0.028614 -10.228528 2.970634 -0.288336 0.148185 -0.215418 0.000000 0.000000 0.000000 0.000000 0.000000 0.000000 0.000000 
-2.581797 16.451042 1.630827 -166.439155 85.990879 -149.705065 -11.946744 5.491841 3.037875 -3.956539 -0.401288 -0.325270 -0.474461 1.614648 29.448217 0.213909 -5.088270 11.386331 -1.575000 -0.000000 -77.322901 8.679766 -0.660696 1.691114 12.348148 -4.782685 -48.968928 2.574715 -3.139818 41.818421 1.149347 9.639507 -6.292901 0.331300 0.000000 -44.793100 8.362262 -2.906352 -5.909138 0.950556 -3.767684 -3.620159 -7.238251 -3.639880 1.548435 3.976082 -12.453344 -9.749466 -4.720378 -0.343093 -0.611713 0.000000 0.000000 0.000000 4.012336 10.981492 -0.229654 -48.648829 -17.751428 9.542559 -178.530907 -67.880146 179.984493 2.399199 -2.354295 -0.063709 -0.142015 0.662677 0.000000 0.000000 0.000000 0.000000 0.000000 0.000000 0.000000 12.795966 -8.594752 1.092304 66.260546 -2.178334 -25.133906 1.163115 58.998064 -0.029085 -10.276001 2.878871 -0.281270 0.146722 -0.214955 0.000000 0.000000 0.000000 0.000000 0.000000 0.000000 0.000000 
-2.438572 16.437192 1.628288 -165.396014 85.469695 -148.747783 -12.099012 5.502505 3.023133 -3.406187 -0.467550 -0.812172 -0.342529 1.712849 30.957771 0.294584 -5.182831 12.526259 -1.752400 -0.000000 -75.690000 8.600391 -0.689910 1.473961 12.725957 -5.162744 -48.469973 2.569747 -3.155160 42.586840 1.056751 9.326135 -7.329514 0.191500 -0.000000 -45.756100 8.683731 -2.891341 -5.699043 1.015331 -3.768170 -3.601476 -7.196272 -3.646040 1.468323 3.814612 -12.215650 -9.777739 -4.755770 -0.344395 -0.629847 0.000000 0.000000 0.000000 3.840364 10.953153 -0.167333 -48.980683 -17.798337 8.997594 -178.540385 -68.213593 179.983393 2.536248 -2.457943 -0.069999 -0.147821 0.668152 0.000000 0.000000 0.000000 0.000000 0.000000 0.000000 0.000000 12.746900 -8.346349 1.159660 66.232119 -1.719346 -25.005089 1.178056 58.186144 -0.029627 -10.306091 2.791045 -0.274099 0.144937 -0.215254 0.000000 0.000000 0.000000 0.000000 0.000000 0.000000 0.000000 
